<svg width="157" height="30" viewBox="0 0 157 30" fill="none" xmlns="http://www.w3.org/2000/svg">
<path d="M49.6046 12.9075L45.7649 11.2919C47.0175 9.12914 49.2314 7.59018 51.8185 7.26807V11.435C50.9237 11.6702 50.1517 12.1917 49.6046 12.9075Z" fill="#88C664"/>
<path d="M49.5432 17.7749L46.8999 20.9858C44.9723 18.9457 44.1696 16.0417 44.9723 13.1785L48.8121 14.7941C48.6484 15.9241 48.9194 16.9159 49.5432 17.7749Z" fill="#88C664"/>
<path d="M52.841 17.4222C53.9705 17.4222 54.8862 16.5065 54.8862 15.377C54.8862 14.2475 53.9705 13.3319 52.841 13.3319C51.7115 13.3319 50.7959 14.2475 50.7959 15.377C50.7959 16.5065 51.7115 17.4222 52.841 17.4222Z" fill="#88C664"/>
<path d="M53.8635 11.4299V7.26294C56.4506 7.59016 58.6645 9.12401 59.9171 11.2867L56.0774 12.9024C55.5303 12.1866 54.7583 11.66 53.8635 11.4299Z" fill="#88C664"/>
<path d="M65.1119 8.00944C62.6066 3.84759 58.0408 1.0611 52.8411 1.0611C47.1096 1.0611 42.1501 4.45091 39.8698 9.32855C39.0058 11.1641 38.5251 13.2143 38.5251 15.377C38.5251 16.0877 38.5763 16.7831 38.6785 17.4631C39.6909 24.3705 45.6576 29.693 52.8411 29.693C58.0408 29.693 62.6066 26.9065 65.1119 22.7446C66.4105 20.5921 67.157 18.0715 67.157 15.377C67.157 12.6826 66.4105 10.1619 65.1119 8.00944ZM52.8411 25.6027C47.2016 25.6027 42.6154 21.0165 42.6154 15.377C42.6154 9.73758 47.2016 5.15136 52.8411 5.15136C58.4805 5.15136 63.0668 9.73758 63.0668 15.377C63.0668 21.0165 58.4805 25.6027 52.8411 25.6027Z" fill="#0F2E5D"/>
<path d="M54.8043 18.9407L57.3505 22.1924C54.7225 23.9359 51.2662 24.0484 48.4746 22.2793L51.1179 19.0685C52.3143 19.6258 53.613 19.5951 54.8043 18.9355V18.9407Z" fill="#88C664"/>
<path d="M58.8998 20.8579L56.3025 17.5397C56.87 16.6347 57.0132 15.74 56.8751 14.7941L60.7149 13.1785C61.5022 16.0008 60.7302 18.8384 58.8998 20.8579Z" fill="#88C664"/>
<path d="M74.1461 12.9075L70.3064 11.2919C71.559 9.12914 73.7729 7.59018 76.36 7.26807V11.435C75.4652 11.6702 74.6932 12.1917 74.1461 12.9075Z" fill="#88C664"/>
<path d="M74.0849 17.7749L71.4416 20.9858C69.5141 18.9457 68.7113 16.0417 69.5141 13.1785L73.3538 14.7941C73.1902 15.9241 73.4612 16.9159 74.0849 17.7749Z" fill="#88C664"/>
<path d="M77.3828 17.4222C78.5123 17.4222 79.4279 16.5065 79.4279 15.377C79.4279 14.2475 78.5123 13.3319 77.3828 13.3319C76.2533 13.3319 75.3376 14.2475 75.3376 15.377C75.3376 16.5065 76.2533 17.4222 77.3828 17.4222Z" fill="#88C664"/>
<path d="M78.4053 11.4299V7.26294C80.9924 7.59016 83.2062 9.12401 84.4589 11.2867L80.6191 12.9024C80.0721 12.1866 79.3 11.66 78.4053 11.4299Z" fill="#88C664"/>
<path d="M91.5809 13.562C91.3151 11.4402 90.5788 9.4666 89.4796 7.73846C86.9487 3.73 82.4699 1.0611 77.3826 1.0611C72.2953 1.0611 67.6171 3.84759 65.1118 8.00944C63.8131 10.1619 63.0667 12.6826 63.0667 15.377C63.0667 18.0715 63.8131 20.5921 65.1118 22.7446C67.6171 26.9065 72.1828 29.693 77.3826 29.693C82.5823 29.693 86.9487 27.0241 89.4796 23.0156C90.8856 20.8018 91.6985 18.184 91.6985 15.377C91.6985 14.7635 91.6576 14.1551 91.5809 13.562ZM77.3826 25.6027C71.7431 25.6027 67.1569 21.0165 67.1569 15.377C67.1569 9.73758 71.7431 5.15136 77.3826 5.15136C83.022 5.15136 87.6083 9.73758 87.6083 15.377C87.6083 21.0165 83.022 25.6027 77.3826 25.6027Z" fill="#0F2E5D"/>
<path d="M79.346 18.9407L81.8922 22.1924C79.2642 23.9359 75.808 24.0484 73.0164 22.2793L75.6597 19.0685C76.8561 19.6258 78.1548 19.5951 79.346 18.9355V18.9407Z" fill="#88C664"/>
<path d="M83.4413 20.8579L80.844 17.5397C81.4115 16.6347 81.5547 15.74 81.4166 14.7941L85.2564 13.1785C86.0437 16.0008 85.2717 18.8384 83.4413 20.8579Z" fill="#88C664"/>
<path d="M132.202 24.1865C131.916 24.1865 131.65 24.1354 131.405 24.0331C131.297 23.9922 131.195 23.9411 131.093 23.8797C130.766 23.6752 130.495 23.4093 130.28 23.077L117.575 0.723694H111.976V29.693H117.457V11.5936L121.798 19.1708C122.539 20.4746 123.265 21.7835 123.986 23.1077C124.702 24.4268 125.454 25.7306 126.226 27.0139C126.732 27.8882 127.386 28.5529 128.179 29.0079C128.976 29.4629 129.871 29.693 130.863 29.693H136.865V24.1865H132.202Z" fill="#88C664"/>
<path d="M91.5811 13.562C91.397 13.7 91.2181 13.8585 91.0545 14.0273C90.5637 14.5232 90.1802 15.101 89.899 15.7605C89.6178 16.4252 89.4797 17.1308 89.4797 17.8875V23.0156C90.8858 20.8018 91.6987 18.184 91.6987 15.3771C91.6987 14.7635 91.6578 14.1551 91.5811 13.562ZM112.211 15.3822L112.063 15.1777L112.211 14.9783C112.891 14.2011 113.418 13.337 113.796 12.3963C114.175 11.4555 114.364 10.4585 114.364 9.41038C114.364 8.20375 114.139 7.07381 113.684 6.01546C113.254 5.02868 112.692 4.1595 111.976 3.41302V26.973C112.242 26.6969 112.487 26.4054 112.718 26.0936C113.275 25.3471 113.694 24.5137 113.986 23.6036C114.103 23.2355 114.195 22.8622 114.267 22.4941C114.333 22.126 114.364 21.7579 114.364 21.3898C114.364 20.2189 114.2 19.1503 113.873 18.1687C113.541 17.187 112.989 16.2565 112.211 15.3822Z" fill="#88C664"/>
<path d="M111.818 3.24432C111.03 2.45694 110.105 1.8434 109.047 1.39348C107.988 0.948659 106.858 0.723694 105.652 0.723694H89.4797V7.7385C90.579 9.46664 91.3152 11.4402 91.5811 13.562C91.6578 14.1551 91.6987 14.7635 91.6987 15.3771C91.6987 18.184 90.8858 20.8018 89.4797 23.0157V29.693H105.626C106.557 29.693 107.462 29.5499 108.346 29.2584C109.231 28.967 110.044 28.5529 110.78 28.016C111.214 27.7041 111.613 27.3564 111.976 26.973V3.41304C111.925 3.3568 111.874 3.30056 111.818 3.24432ZM108.638 22.2743C108.474 22.6526 108.249 22.985 107.968 23.2662C107.687 23.5474 107.364 23.7724 106.991 23.936C106.623 24.1047 106.224 24.1865 105.8 24.1865H94.9556V17.9488H105.8C106.224 17.9488 106.628 18.0306 107.007 18.1942C107.385 18.363 107.712 18.5879 107.983 18.8794C108.254 19.1708 108.474 19.5082 108.638 19.8866C108.806 20.2649 108.888 20.6586 108.888 21.0677C108.888 21.4767 108.806 21.8959 108.638 22.2743ZM108.638 10.5557C108.474 10.9238 108.249 11.2459 107.968 11.5271C107.687 11.8083 107.364 12.0282 106.991 12.1918C106.623 12.3605 106.224 12.4423 105.8 12.4423H94.9556V6.23022H105.8C106.224 6.23022 106.628 6.31713 107.007 6.48075C107.385 6.64436 107.712 6.86932 107.983 7.16075C108.254 7.45218 108.474 7.78452 108.638 8.16287C108.806 8.54122 108.888 8.94002 108.888 9.36438C108.888 9.78875 108.806 10.1876 108.638 10.5557Z" fill="#88C664"/>
<path d="M91.6987 15.377C91.6987 18.184 90.8858 20.8018 89.4797 23.0156V7.73846C90.579 9.4666 91.3152 11.4402 91.5811 13.562C91.6578 14.1551 91.6987 14.7635 91.6987 15.377Z" fill="#88C664"/>
<path d="M150.977 2.9682C150.839 2.86595 150.696 2.7688 150.547 2.67677C150.276 2.49271 149.995 2.32399 149.709 2.16549C148.103 1.28097 146.365 0.79525 144.489 0.708332C144.463 0.708332 144.432 0.708332 144.407 0.708332C144.238 0.703219 144.074 0.692993 143.906 0.692993H143.849C142.142 0.692993 140.541 1.02533 139.043 1.66954C138.374 1.95586 137.745 2.29331 137.152 2.67677C137.003 2.7688 136.865 2.87106 136.722 2.9682C136.129 3.37723 135.577 3.8425 135.066 4.35378C133.925 5.48883 133.036 6.81817 132.381 8.34691C131.732 9.87053 131.405 11.4964 131.405 13.2246V29.693H136.886V13.3728C136.886 12.4218 137.065 11.5066 137.423 10.6323C137.786 9.75805 138.276 8.99624 138.895 8.34691C139.519 7.69246 140.25 7.17607 141.094 6.78749C141.942 6.39892 142.847 6.20463 143.819 6.20463H154.106C153.231 4.92131 152.188 3.8425 150.977 2.9682Z" fill="#88C664"/>
<path d="M155.317 8.34691C154.668 6.81817 153.773 5.48883 152.638 4.35378C152.122 3.8425 151.57 3.37723 150.977 2.9682C150.839 2.86595 150.695 2.7688 150.547 2.67677C149.954 2.29331 149.325 1.95586 148.661 1.66954C147.157 1.02533 145.557 0.698106 143.849 0.692993H143.793C143.624 0.692993 143.456 0.703219 143.292 0.708332C143.267 0.708332 143.236 0.708332 143.21 0.708332C141.334 0.790137 139.595 1.27586 137.99 2.16549C137.704 2.32399 137.423 2.49782 137.152 2.67677C137.003 2.7688 136.865 2.87106 136.722 2.9682C135.51 3.8425 134.467 4.92131 133.593 6.20463H143.88C144.851 6.20463 145.756 6.39892 146.605 6.78749C147.449 7.17607 148.18 7.69246 148.804 8.34691C149.427 8.99624 149.918 9.75805 150.276 10.6323C150.634 11.5066 150.813 12.4218 150.813 13.3728V29.693H156.294V13.2246C156.294 11.4964 155.967 9.87053 155.317 8.34691Z" fill="#88C664"/>
<path d="M144.545 6.20463C144.315 6.18418 144.085 6.17395 143.849 6.17395C143.614 6.17395 143.384 6.18418 143.154 6.20463C138.967 6.55741 135.674 10.075 135.674 14.3494C135.674 15.7247 136.155 17.3353 136.886 18.9867C139.166 24.1405 143.86 29.693 143.86 29.693C143.86 29.693 148.538 23.9922 150.813 18.8793C151.544 17.2381 152.025 15.6583 152.025 14.3494C152.025 10.075 148.732 6.55741 144.545 6.20463ZM146.319 16.7422C145.639 17.4222 144.744 17.7647 143.849 17.7647C142.955 17.7647 142.065 17.4222 141.385 16.7422C140.025 15.3822 140.025 13.1683 141.385 11.8083C142.045 11.1487 142.919 10.7857 143.849 10.7857C144.78 10.7857 145.659 11.1487 146.319 11.8083C147.679 13.1683 147.679 15.3822 146.319 16.7422Z" fill="#0F2E5D"/>
<path d="M35.1763 21.2262C35.6007 20.9398 36.0046 20.628 36.388 20.2905C37.1652 19.5952 37.8452 18.8027 38.4025 17.9233C38.4996 17.775 38.5917 17.6216 38.6786 17.4631C39.103 16.7166 39.4455 15.919 39.7012 15.0856C40.0079 14.0631 40.1664 12.9945 40.1664 11.9055C40.1664 11.0261 40.0693 10.162 39.8699 9.32859C39.7267 8.71505 39.5324 8.11685 39.287 7.5391C38.7093 6.1842 37.9066 4.9878 36.9044 3.98568C35.9023 2.98357 34.7059 2.18085 33.351 1.6031C31.9859 1.02024 30.5083 0.723694 28.954 0.723694H17.808V2.42627C17.3069 2.11438 16.7803 1.83829 16.2384 1.6031C14.8835 1.02024 13.4212 0.723694 11.8873 0.723694H0.705566V29.6623H11.8873C13.4212 29.6623 14.8886 29.3658 16.2486 28.7829C16.7905 28.5529 17.3121 28.2819 17.808 27.9802V29.6623H23.0691V5.9848H28.9847C29.8129 5.9848 30.5901 6.13819 31.3008 6.43984C32.0166 6.74661 32.6506 7.17098 33.1874 7.70783C33.7191 8.23956 34.1486 8.87355 34.4503 9.58935C34.7519 10.3 34.9053 11.0823 34.9053 11.9055C34.9053 12.5343 34.8133 13.1428 34.6395 13.7154C34.4554 14.288 34.1998 14.8249 33.8725 15.3055C33.5453 15.781 33.1465 16.2002 32.6915 16.553C32.2211 16.9109 31.6996 17.2024 31.1423 17.4222C30.8151 17.5449 30.4725 17.6472 30.1197 17.7188C29.8641 17.7699 29.5982 17.8006 29.3272 17.8006C29.2556 17.8006 29.1841 17.7954 29.0665 17.7903H26.1215L34.8644 29.6623H41.4753L35.1763 21.2262ZM17.808 18.4806C17.808 19.3088 17.6546 20.086 17.353 20.7967C17.0462 21.5125 16.6218 22.1465 16.085 22.6833C15.5532 23.2151 14.9192 23.6445 14.1983 23.9462C13.4928 24.2478 12.7156 24.4012 11.8873 24.4012H5.96667V5.9848H11.8873C12.6849 5.9848 13.4468 6.1433 14.1523 6.45007C14.8783 6.76706 15.5175 7.20165 16.0543 7.7385C16.5911 8.27535 17.0257 8.91446 17.3427 9.63536C17.6495 10.346 17.808 11.1079 17.808 11.9055V18.4806Z" fill="#88C664"/>
</svg>
